<?xml version="1.0" standalone="no"?><!DOCTYPE svg PUBLIC "-//W3C//DTD SVG 1.1//EN" "http://www.w3.org/Graphics/SVG/1.1/DTD/svg11.dtd"><svg t="1568812116206" class="icon" viewBox="0 0 1024 1024" version="1.1" xmlns="http://www.w3.org/2000/svg" p-id="17323" width="48" height="48" xmlns:xlink="http://www.w3.org/1999/xlink"><defs><style type="text/css"></style></defs><path d="M0 1024h1024V0H0z" fill="#97DAD3" p-id="17324"></path><path d="M1024 573.482667a120.277333 120.277333 0 0 0-7.594667-7.253334 122.282667 122.282667 0 0 0-11.989333-11.989333 128.042667 128.042667 0 0 0-12.032-12.032 123.136 123.136 0 0 0-12.032-12.032 122.837333 122.837333 0 0 0-11.989333-12.032 133.034667 133.034667 0 0 0-11.989334-12.032 128.384 128.384 0 0 0-12.074666-12.032 118.272 118.272 0 0 0-11.989334-12.032 133.034667 133.034667 0 0 0-11.989333-12.032 133.376 133.376 0 0 0-12.032-12.032 123.136 123.136 0 0 0-12.032-12.032 127.744 127.744 0 0 0-11.989333-12.032 133.376 133.376 0 0 0-12.032-12.032 123.136 123.136 0 0 0-12.032-12.032 127.744 127.744 0 0 0-11.989334-12.032 132.736 132.736 0 0 0-12.032-11.989333 123.136 123.136 0 0 0-12.032-12.032 122.837333 122.837333 0 0 0-11.989333-12.032 133.034667 133.034667 0 0 0-11.989333-12.032 160.768 160.768 0 0 0-12.245334-11.989334 122.837333 122.837333 0 0 0-11.989333-12.032 122.88 122.88 0 0 0-12.074667-11.989333 123.136 123.136 0 0 0-12.032-12.032 122.837333 122.837333 0 0 0-11.989333-12.032 133.034667 133.034667 0 0 0-11.989333-12.032 128.384 128.384 0 0 0-12.074667-12.032 118.272 118.272 0 0 0-11.989333-12.032 127.744 127.744 0 0 0-11.989334-12.032 128.042667 128.042667 0 0 0-12.032-12.032 123.136 123.136 0 0 0-12.032-12.032 122.837333 122.837333 0 0 0-11.989333-12.032 128.042667 128.042667 0 0 0-12.032-12.032 139.178667 139.178667 0 0 0-12.117333-11.989333 122.837333 122.837333 0 0 0-11.989334-12.032c-27.904-32-64.256-40.832-85.674666-40.832-45.397333 0-96.469333-53.589333-96.469334-53.589334-2.304 6.442667-1.92 14.634667-0.298666 22.997334-0.938667 3.413333-1.749333 6.784-2.346667 10.154666-5.461333-14.421333-8.618667-26.112-8.618667-26.112-1.493333 4.736-2.56 9.472-3.413333 14.122667a307.328 307.328 0 0 1-8.661333-26.154667c-1.450667 4.693333-2.517333 9.429333-3.413334 14.08-5.418667-14.421333-8.618667-26.112-8.618666-26.112-14.506667 46.677333 3.157333 92.074667 3.157333 92.074667l-0.725333-0.341333c-3.029333-4.821333-4.821333-8.405333-4.821334-8.405334-0.341333 1.834667-0.554667 3.541333-0.768 5.248l-0.384-0.256c-6.656-8.533333-10.922667-16.981333-10.922666-16.981333l-0.768 5.376c-6.826667-8.661333-11.221333-17.408-11.221334-17.408-6.954667 40.96 7.082667 57.984 7.082667 57.984-33.28 83.882667-10.026667 210.005333-10.026667 210.005333v-0.042666a18.517333 18.517333 0 0 1 0.085334 1.536 18.346667 18.346667 0 0 0-13.226667-2.474667 18.346667 18.346667 0 0 0-14.336 21.504l9.472 47.829333c1.365333 6.826667 6.357333 11.946667 12.586667 13.866667 1.834667 5.888 6.4 10.282667 12.032 12.032a18.048 18.048 0 0 0 7.850666 10.197333c1.066667 3.114667 2.133333 5.802667 3.285334 7.850667 8.490667 15.701333 21.632 33.536 38.357333 48.810667 3.754667 4.138667 7.765333 8.106667 12.032 12.032l1.024 1.152c-6.357333 67.754667-35.925333 96.725333-57.557333 108.885333-35.242667 2.688-88.618667 12.885333-101.802667 12.885333a99.541333 99.541333 0 0 0-99.541333 99.584V1024H1024V573.482667z" fill="#87D3C9" p-id="17325"></path><path d="M184.362667 1024h655.274666v-171.861333H184.362667z" fill="#FBDFB9" p-id="17326"></path><path d="M740.096 681.258667c-18.688 0-117.12-20.181333-132.053333-11.264-29.098667 17.322667-96.042667 74.496-96.042667 110.848 0-36.352-66.986667-93.482667-96.042667-110.848-14.933333-8.917333-113.408 11.264-132.010666 11.264a99.541333 99.541333 0 0 0-99.541334 99.584v71.296h120.021334V1024h415.146666v-171.861333h120.021334v-71.296a99.498667 99.498667 0 0 0-99.498667-99.584" fill="#ea986c" p-id="17327"></path><path d="M579.413333 531.968h-134.826666c0 135.850667-82.517333 145.109333-82.517334 145.109333 0 128.682667 149.930667 107.818667 149.930667 107.818667s149.930667 20.821333 149.930667-107.818667c0 0-82.517333-9.258667-82.517334-145.109333M392.021333 446.464a18.304 18.304 0 0 1-35.84 7.125333L346.666667 405.76a18.218667 18.218667 0 0 1 14.336-21.461333 18.218667 18.218667 0 0 1 21.504 14.336l9.514666 47.829333zM629.162667 446.464a18.346667 18.346667 0 0 0 35.925333 7.125333l9.472-47.829333a18.304 18.304 0 0 0-35.882667-7.125333l-9.514666 47.829333z" fill="#FBDFB9" p-id="17328"></path><path d="M512 581.589333c-57.045333 0-100.608-48.085333-120.106667-84.096-19.498667-36.053333-33.024-243.242667 9.045334-300.288C442.069333 141.354667 512 147.669333 512 147.669333s69.930667-6.314667 111.104 49.536c42.069333 57.045333 28.544 264.234667 9.002667 300.288-19.541333 36.010667-63.018667 84.096-120.106667 84.096" fill="#FCE5C5" p-id="17329"></path><path d="M649.813333 385.237333s-32.512-95.872-39.424-133.077333c0 0-86.4 11.349333-155.776-25.856 0 0-30.933333 29.013333-51.072 36.565333 0 0-12.8 86.4-29.397333 122.368 0 0-23.253333-126.122667 10.026667-210.005333 0 0-14.037333-17.024-7.125334-58.026667 0 0 13.269333 26.496 29.653334 32.810667 0 0-17.664-45.397333-3.157334-92.074667 0 0 21.418667 79.445333 49.194667 79.445334 0 0-21.418667-40.96-13.866667-62.421334 0 0 51.072 53.589333 96.512 53.589334 45.354667 0 158.293333 39.722667 114.432 256.682666" fill="#333333" p-id="17330"></path><path d="M632.064 497.493333c-19.498667 36.010667-25.344 84.096-120.064 84.096s-100.608-48.085333-120.106667-84.096" fill="#FCE5C5" p-id="17331"></path></svg>